<svg width="24" height="24" viewBox="0 0 24 24" fill="none" xmlns="http://www.w3.org/2000/svg">
<g id="24 / finance / wallet" opacity="0.8">
<path id="icon" fill-rule="evenodd" clip-rule="evenodd" d="M15.4506 1.40268C16.5126 1.09923 17.6196 1.71422 17.923 2.77629C17.9741 2.95497 18 3.1399 18 3.32573V5H20C21.1046 5 22 5.89543 22 7V19C22 20.1046 21.1046 21 20 21H4C2.89543 21 2 20.1046 2 19H2.0267C2.00895 18.8925 2 18.7835 2 18.6743V6.7543C2 5.86134 2.59195 5.07657 3.45056 4.83125L15.4506 1.40268ZM10.1401 19H20V11H18V15.2457C18 16.1387 17.408 16.9234 16.5494 17.1687L10.1401 19ZM20 7V9H18V7H20ZM4 6.75427V18.6742L16 15.2457V3.3257L4 6.75427ZM14 9C14 9.55228 13.5523 10 13 10C12.4477 10 12 9.55228 12 9C12 8.44771 12.4477 8 13 8C13.5523 8 14 8.44771 14 9Z" fill="black"/>
</g>
</svg>
