<svg width="13" height="13" viewBox="0 0 13 13" fill="none" xmlns="http://www.w3.org/2000/svg">
<path fill-rule="evenodd" clip-rule="evenodd" d="M10.2916 8.70813L12.8232 11.2393C13.0594 11.478 13.0594 11.8639 12.8207 12.1025L12.1021 12.821C11.8659 13.0597 11.4799 13.0597 11.2413 12.821L8.70962 10.2898C8.59536 10.1756 8.53187 10.0207 8.53187 9.85822C8.53187 9.69009 8.33636 9.59338 8.19622 9.68627C7.36094 10.2399 6.35954 10.5615 5.28164 10.5615C2.36404 10.5615 0 8.19783 0 5.28073C0 2.36364 2.36404 0 5.28164 0C8.19923 0 10.5633 2.36364 10.5633 5.28073C10.5633 6.35842 10.2416 7.35962 9.68797 8.19474C9.59507 8.33488 9.69176 8.53042 9.8599 8.53042C10.0224 8.53042 10.1773 8.59389 10.2916 8.70813ZM2.03146 5.28073C2.03146 7.07821 3.48645 8.53041 5.2817 8.53041C7.07949 8.53041 8.53194 7.07567 8.53194 5.28073C8.53194 3.48325 7.07695 2.03104 5.2817 2.03104C3.48391 2.03104 2.03146 3.48579 2.03146 5.28073Z" fill="#494949"/>
</svg>
