<svg width="1440" height="190" viewBox="0 0 1440 190" fill="none" xmlns="http://www.w3.org/2000/svg">
<rect width="1440" height="190" fill="#F5F5F3"/>
<path d="M286.72 67L292.912 50.2H295.048L301.216 67H299.08L297.544 62.68H290.392L288.832 67H286.72ZM290.992 61.048H296.944L293.968 52.744L290.992 61.048ZM309.954 67.288C308.978 67.288 308.106 67.088 307.338 66.688C306.586 66.288 306.01 65.728 305.61 65.008L305.418 67H303.594V49.72H305.61V57.064C305.994 56.488 306.538 55.968 307.242 55.504C307.962 55.04 308.874 54.808 309.978 54.808C311.162 54.808 312.194 55.08 313.074 55.624C313.954 56.168 314.634 56.912 315.114 57.856C315.61 58.8 315.858 59.872 315.858 61.072C315.858 62.272 315.61 63.344 315.114 64.288C314.634 65.216 313.946 65.952 313.05 66.496C312.17 67.024 311.138 67.288 309.954 67.288ZM309.738 65.536C310.538 65.536 311.242 65.352 311.85 64.984C312.458 64.6 312.938 64.072 313.29 63.4C313.642 62.728 313.818 61.944 313.818 61.048C313.818 60.152 313.642 59.368 313.29 58.696C312.938 58.024 312.458 57.504 311.85 57.136C311.242 56.752 310.538 56.56 309.738 56.56C308.938 56.56 308.234 56.752 307.626 57.136C307.018 57.504 306.538 58.024 306.186 58.696C305.834 59.368 305.658 60.152 305.658 61.048C305.658 61.944 305.834 62.728 306.186 63.4C306.538 64.072 307.018 64.6 307.626 64.984C308.234 65.352 308.938 65.536 309.738 65.536ZM324.088 67.288C322.968 67.288 321.96 67.032 321.064 66.52C320.168 66.008 319.456 65.288 318.928 64.36C318.416 63.416 318.16 62.312 318.16 61.048C318.16 59.784 318.424 58.688 318.952 57.76C319.48 56.816 320.192 56.088 321.088 55.576C322 55.064 323.016 54.808 324.136 54.808C325.256 54.808 326.264 55.064 327.16 55.576C328.056 56.088 328.76 56.816 329.272 57.76C329.8 58.688 330.064 59.784 330.064 61.048C330.064 62.312 329.8 63.416 329.272 64.36C328.744 65.288 328.024 66.008 327.112 66.52C326.216 67.032 325.208 67.288 324.088 67.288ZM324.088 65.56C324.776 65.56 325.416 65.392 326.008 65.056C326.6 64.72 327.08 64.216 327.448 63.544C327.816 62.872 328 62.04 328 61.048C328 60.056 327.816 59.224 327.448 58.552C327.096 57.88 326.624 57.376 326.032 57.04C325.44 56.704 324.808 56.536 324.136 56.536C323.448 56.536 322.808 56.704 322.216 57.04C321.624 57.376 321.144 57.88 320.776 58.552C320.408 59.224 320.224 60.056 320.224 61.048C320.224 62.04 320.408 62.872 320.776 63.544C321.144 64.216 321.616 64.72 322.192 65.056C322.784 65.392 323.416 65.56 324.088 65.56ZM337.211 67.288C335.803 67.288 334.683 66.864 333.851 66.016C333.019 65.152 332.603 63.832 332.603 62.056V55.096H334.619V61.84C334.619 64.32 335.635 65.56 337.667 65.56C338.707 65.56 339.563 65.192 340.235 64.456C340.923 63.704 341.267 62.64 341.267 61.264V55.096H343.283V67H341.459L341.315 64.864C340.947 65.616 340.395 66.208 339.659 66.64C338.939 67.072 338.123 67.288 337.211 67.288ZM351.305 67C350.217 67 349.361 66.736 348.737 66.208C348.113 65.68 347.801 64.728 347.801 63.352V56.8H345.737V55.096H347.801L348.065 52.24H349.817V55.096H353.321V56.8H349.817V63.352C349.817 64.104 349.969 64.616 350.273 64.888C350.577 65.144 351.113 65.272 351.881 65.272H353.129V67H351.305ZM366.578 67.288C365.17 67.288 364.05 66.864 363.218 66.016C362.386 65.152 361.97 63.832 361.97 62.056V55.096H363.986V61.84C363.986 64.32 365.002 65.56 367.034 65.56C368.074 65.56 368.93 65.192 369.602 64.456C370.29 63.704 370.634 62.64 370.634 61.264V55.096H372.65V67H370.826L370.682 64.864C370.314 65.616 369.762 66.208 369.026 66.64C368.306 67.072 367.49 67.288 366.578 67.288ZM380.529 67.288C379.105 67.288 377.921 66.928 376.977 66.208C376.033 65.488 375.481 64.512 375.321 63.28H377.385C377.513 63.904 377.841 64.448 378.369 64.912C378.913 65.36 379.641 65.584 380.553 65.584C381.401 65.584 382.025 65.408 382.425 65.056C382.825 64.688 383.025 64.256 383.025 63.76C383.025 63.04 382.761 62.56 382.233 62.32C381.721 62.08 380.993 61.864 380.049 61.672C379.409 61.544 378.769 61.36 378.129 61.12C377.489 60.88 376.953 60.544 376.521 60.112C376.089 59.664 375.873 59.08 375.873 58.36C375.873 57.32 376.257 56.472 377.025 55.816C377.809 55.144 378.865 54.808 380.193 54.808C381.457 54.808 382.489 55.128 383.289 55.768C384.105 56.392 384.577 57.288 384.705 58.456H382.713C382.633 57.848 382.369 57.376 381.921 57.04C381.489 56.688 380.905 56.512 380.169 56.512C379.449 56.512 378.889 56.664 378.489 56.968C378.105 57.272 377.913 57.672 377.913 58.168C377.913 58.648 378.161 59.024 378.657 59.296C379.169 59.568 379.857 59.8 380.721 59.992C381.457 60.152 382.153 60.352 382.809 60.592C383.481 60.816 384.025 61.16 384.441 61.624C384.873 62.072 385.089 62.728 385.089 63.592C385.105 64.664 384.697 65.552 383.865 66.256C383.049 66.944 381.937 67.288 380.529 67.288ZM295.144 103.288C293.496 103.288 292.072 102.928 290.872 102.208C289.688 101.472 288.768 100.456 288.112 99.16C287.456 97.848 287.128 96.328 287.128 94.6C287.128 92.888 287.456 91.384 288.112 90.088C288.768 88.776 289.688 87.752 290.872 87.016C292.072 86.28 293.496 85.912 295.144 85.912C297.064 85.912 298.624 86.376 299.824 87.304C301.04 88.216 301.816 89.496 302.152 91.144H299.92C299.664 90.104 299.136 89.272 298.336 88.648C297.552 88.008 296.488 87.688 295.144 87.688C293.944 87.688 292.896 87.968 292 88.528C291.104 89.072 290.408 89.864 289.912 90.904C289.432 91.928 289.192 93.16 289.192 94.6C289.192 96.04 289.432 97.28 289.912 98.32C290.408 99.344 291.104 100.136 292 100.696C292.896 101.24 293.944 101.512 295.144 101.512C296.488 101.512 297.552 101.208 298.336 100.6C299.136 99.976 299.664 99.152 299.92 98.128H302.152C301.816 99.744 301.04 101.008 299.824 101.92C298.624 102.832 297.064 103.288 295.144 103.288ZM310.353 103.288C309.233 103.288 308.225 103.032 307.329 102.52C306.433 102.008 305.721 101.288 305.193 100.36C304.681 99.416 304.425 98.312 304.425 97.048C304.425 95.784 304.689 94.688 305.217 93.76C305.745 92.816 306.457 92.088 307.353 91.576C308.265 91.064 309.281 90.808 310.401 90.808C311.521 90.808 312.529 91.064 313.425 91.576C314.321 92.088 315.025 92.816 315.537 93.76C316.065 94.688 316.329 95.784 316.329 97.048C316.329 98.312 316.065 99.416 315.537 100.36C315.009 101.288 314.289 102.008 313.377 102.52C312.481 103.032 311.473 103.288 310.353 103.288ZM310.353 101.56C311.041 101.56 311.681 101.392 312.273 101.056C312.865 100.72 313.345 100.216 313.713 99.544C314.081 98.872 314.265 98.04 314.265 97.048C314.265 96.056 314.081 95.224 313.713 94.552C313.361 93.88 312.889 93.376 312.297 93.04C311.705 92.704 311.073 92.536 310.401 92.536C309.713 92.536 309.073 92.704 308.481 93.04C307.889 93.376 307.409 93.88 307.041 94.552C306.673 95.224 306.489 96.056 306.489 97.048C306.489 98.04 306.673 98.872 307.041 99.544C307.409 100.216 307.881 100.72 308.457 101.056C309.049 101.392 309.681 101.56 310.353 101.56ZM319.133 103V91.096H320.957L321.077 93.232C321.461 92.48 322.013 91.888 322.733 91.456C323.453 91.024 324.269 90.808 325.181 90.808C326.589 90.808 327.709 91.24 328.541 92.104C329.389 92.952 329.813 94.264 329.813 96.04V103H327.797V96.256C327.797 93.776 326.773 92.536 324.725 92.536C323.701 92.536 322.845 92.912 322.157 93.664C321.485 94.4 321.149 95.456 321.149 96.832V103H319.133ZM337.571 103C336.483 103 335.627 102.736 335.003 102.208C334.379 101.68 334.067 100.728 334.067 99.352V92.8H332.003V91.096H334.067L334.331 88.24H336.083V91.096H339.587V92.8H336.083V99.352C336.083 100.104 336.235 100.616 336.539 100.888C336.843 101.144 337.379 101.272 338.147 101.272H339.395V103H337.571ZM346.108 103.288C345.116 103.288 344.292 103.12 343.636 102.784C342.98 102.448 342.492 102 342.172 101.44C341.852 100.88 341.692 100.272 341.692 99.616C341.692 98.4 342.156 97.464 343.084 96.808C344.012 96.152 345.276 95.824 346.876 95.824H350.092V95.68C350.092 94.64 349.82 93.856 349.276 93.328C348.732 92.784 348.004 92.512 347.092 92.512C346.308 92.512 345.628 92.712 345.052 93.112C344.492 93.496 344.14 94.064 343.996 94.816H341.932C342.012 93.952 342.3 93.224 342.796 92.632C343.308 92.04 343.94 91.592 344.692 91.288C345.444 90.968 346.244 90.808 347.092 90.808C348.756 90.808 350.004 91.256 350.836 92.152C351.684 93.032 352.108 94.208 352.108 95.68V103H350.308L350.188 100.864C349.852 101.536 349.356 102.112 348.7 102.592C348.06 103.056 347.196 103.288 346.108 103.288ZM346.42 101.584C347.188 101.584 347.844 101.384 348.388 100.984C348.948 100.584 349.372 100.064 349.66 99.424C349.948 98.784 350.092 98.112 350.092 97.408V97.384H347.044C345.86 97.384 345.02 97.592 344.524 98.008C344.044 98.408 343.804 98.912 343.804 99.52C343.804 100.144 344.028 100.648 344.476 101.032C344.94 101.4 345.588 101.584 346.42 101.584ZM360.605 103.288C359.469 103.288 358.445 103.032 357.533 102.52C356.637 101.992 355.925 101.264 355.397 100.336C354.885 99.392 354.629 98.296 354.629 97.048C354.629 95.8 354.885 94.712 355.397 93.784C355.925 92.84 356.637 92.112 357.533 91.6C358.445 91.072 359.469 90.808 360.605 90.808C362.013 90.808 363.197 91.176 364.157 91.912C365.133 92.648 365.749 93.632 366.005 94.864H363.941C363.781 94.128 363.389 93.56 362.765 93.16C362.141 92.744 361.413 92.536 360.581 92.536C359.909 92.536 359.277 92.704 358.685 93.04C358.093 93.376 357.613 93.88 357.245 94.552C356.877 95.224 356.693 96.056 356.693 97.048C356.693 98.04 356.877 98.872 357.245 99.544C357.613 100.216 358.093 100.728 358.685 101.08C359.277 101.416 359.909 101.584 360.581 101.584C361.413 101.584 362.141 101.384 362.765 100.984C363.389 100.568 363.781 99.984 363.941 99.232H366.005C365.765 100.432 365.157 101.408 364.181 102.16C363.205 102.912 362.013 103.288 360.605 103.288ZM373.196 103C372.108 103 371.252 102.736 370.628 102.208C370.004 101.68 369.692 100.728 369.692 99.352V92.8H367.628V91.096H369.692L369.956 88.24H371.708V91.096H375.212V92.8H371.708V99.352C371.708 100.104 371.86 100.616 372.164 100.888C372.468 101.144 373.004 101.272 373.772 101.272H375.02V103H373.196ZM293.128 139.288C291.896 139.288 290.824 139.064 289.912 138.616C289 138.168 288.296 137.544 287.8 136.744C287.304 135.944 287.056 135.016 287.056 133.96H289.168C289.168 134.616 289.32 135.224 289.624 135.784C289.928 136.328 290.368 136.768 290.944 137.104C291.536 137.424 292.264 137.584 293.128 137.584C294.264 137.584 295.144 137.312 295.768 136.768C296.392 136.224 296.704 135.544 296.704 134.728C296.704 134.056 296.56 133.52 296.272 133.12C295.984 132.704 295.592 132.368 295.096 132.112C294.616 131.856 294.056 131.632 293.416 131.44C292.792 131.248 292.136 131.032 291.448 130.792C290.152 130.344 289.192 129.792 288.568 129.136C287.944 128.464 287.632 127.592 287.632 126.52C287.616 125.624 287.824 124.832 288.256 124.144C288.688 123.44 289.296 122.896 290.08 122.512C290.88 122.112 291.824 121.912 292.912 121.912C293.984 121.912 294.912 122.112 295.696 122.512C296.496 122.912 297.112 123.464 297.544 124.168C297.992 124.872 298.224 125.672 298.24 126.568H296.128C296.128 126.104 296.008 125.648 295.768 125.2C295.528 124.736 295.16 124.36 294.664 124.072C294.184 123.784 293.576 123.64 292.84 123.64C291.928 123.624 291.176 123.856 290.584 124.336C290.008 124.816 289.72 125.48 289.72 126.328C289.72 127.048 289.92 127.6 290.32 127.984C290.736 128.368 291.312 128.688 292.048 128.944C292.784 129.184 293.632 129.464 294.592 129.784C295.392 130.072 296.112 130.408 296.752 130.792C297.392 131.176 297.888 131.672 298.24 132.28C298.608 132.888 298.792 133.664 298.792 134.608C298.792 135.408 298.584 136.168 298.168 136.888C297.752 137.592 297.12 138.168 296.272 138.616C295.44 139.064 294.392 139.288 293.128 139.288ZM305.875 139.288C304.467 139.288 303.347 138.864 302.515 138.016C301.683 137.152 301.267 135.832 301.267 134.056V127.096H303.283V133.84C303.283 136.32 304.299 137.56 306.331 137.56C307.371 137.56 308.227 137.192 308.899 136.456C309.587 135.704 309.931 134.64 309.931 133.264V127.096H311.947V139H310.123L309.979 136.864C309.611 137.616 309.059 138.208 308.323 138.64C307.603 139.072 306.787 139.288 305.875 139.288ZM319.825 139.288C318.401 139.288 317.217 138.928 316.273 138.208C315.329 137.488 314.777 136.512 314.617 135.28H316.681C316.809 135.904 317.137 136.448 317.665 136.912C318.209 137.36 318.937 137.584 319.849 137.584C320.697 137.584 321.321 137.408 321.721 137.056C322.121 136.688 322.321 136.256 322.321 135.76C322.321 135.04 322.057 134.56 321.529 134.32C321.017 134.08 320.289 133.864 319.345 133.672C318.705 133.544 318.065 133.36 317.425 133.12C316.785 132.88 316.249 132.544 315.817 132.112C315.385 131.664 315.169 131.08 315.169 130.36C315.169 129.32 315.553 128.472 316.321 127.816C317.105 127.144 318.161 126.808 319.489 126.808C320.753 126.808 321.785 127.128 322.585 127.768C323.401 128.392 323.873 129.288 324.001 130.456H322.009C321.929 129.848 321.665 129.376 321.217 129.04C320.785 128.688 320.201 128.512 319.465 128.512C318.745 128.512 318.185 128.664 317.785 128.968C317.401 129.272 317.209 129.672 317.209 130.168C317.209 130.648 317.457 131.024 317.953 131.296C318.465 131.568 319.153 131.8 320.017 131.992C320.753 132.152 321.449 132.352 322.105 132.592C322.777 132.816 323.321 133.16 323.737 133.624C324.169 134.072 324.385 134.728 324.385 135.592C324.401 136.664 323.993 137.552 323.161 138.256C322.345 138.944 321.233 139.288 319.825 139.288ZM333.625 139.288C332.649 139.288 331.777 139.088 331.009 138.688C330.257 138.288 329.681 137.728 329.281 137.008L329.089 139H327.265V121.72H329.281V129.064C329.665 128.488 330.209 127.968 330.913 127.504C331.633 127.04 332.545 126.808 333.649 126.808C334.833 126.808 335.865 127.08 336.745 127.624C337.625 128.168 338.305 128.912 338.785 129.856C339.281 130.8 339.529 131.872 339.529 133.072C339.529 134.272 339.281 135.344 338.785 136.288C338.305 137.216 337.617 137.952 336.721 138.496C335.841 139.024 334.809 139.288 333.625 139.288ZM333.409 137.536C334.209 137.536 334.913 137.352 335.521 136.984C336.129 136.6 336.609 136.072 336.961 135.4C337.313 134.728 337.489 133.944 337.489 133.048C337.489 132.152 337.313 131.368 336.961 130.696C336.609 130.024 336.129 129.504 335.521 129.136C334.913 128.752 334.209 128.56 333.409 128.56C332.609 128.56 331.905 128.752 331.297 129.136C330.689 129.504 330.209 130.024 329.857 130.696C329.505 131.368 329.329 132.152 329.329 133.048C329.329 133.944 329.505 134.728 329.857 135.4C330.209 136.072 330.689 136.6 331.297 136.984C331.905 137.352 332.609 137.536 333.409 137.536ZM346.896 139.288C345.472 139.288 344.288 138.928 343.344 138.208C342.4 137.488 341.848 136.512 341.688 135.28H343.752C343.88 135.904 344.208 136.448 344.736 136.912C345.28 137.36 346.008 137.584 346.92 137.584C347.768 137.584 348.392 137.408 348.792 137.056C349.192 136.688 349.392 136.256 349.392 135.76C349.392 135.04 349.128 134.56 348.6 134.32C348.088 134.08 347.36 133.864 346.416 133.672C345.776 133.544 345.136 133.36 344.496 133.12C343.856 132.88 343.32 132.544 342.888 132.112C342.456 131.664 342.24 131.08 342.24 130.36C342.24 129.32 342.624 128.472 343.392 127.816C344.176 127.144 345.232 126.808 346.56 126.808C347.824 126.808 348.856 127.128 349.656 127.768C350.472 128.392 350.944 129.288 351.072 130.456H349.08C349 129.848 348.736 129.376 348.288 129.04C347.856 128.688 347.272 128.512 346.536 128.512C345.816 128.512 345.256 128.664 344.856 128.968C344.472 129.272 344.28 129.672 344.28 130.168C344.28 130.648 344.528 131.024 345.024 131.296C345.536 131.568 346.224 131.8 347.088 131.992C347.824 132.152 348.52 132.352 349.176 132.592C349.848 132.816 350.392 133.16 350.808 133.624C351.24 134.072 351.456 134.728 351.456 135.592C351.472 136.664 351.064 137.552 350.232 138.256C349.416 138.944 348.304 139.288 346.896 139.288ZM359.808 139.288C358.672 139.288 357.648 139.032 356.736 138.52C355.84 137.992 355.128 137.264 354.6 136.336C354.088 135.392 353.832 134.296 353.832 133.048C353.832 131.8 354.088 130.712 354.6 129.784C355.128 128.84 355.84 128.112 356.736 127.6C357.648 127.072 358.672 126.808 359.808 126.808C361.216 126.808 362.4 127.176 363.36 127.912C364.336 128.648 364.952 129.632 365.208 130.864H363.144C362.984 130.128 362.592 129.56 361.968 129.16C361.344 128.744 360.616 128.536 359.784 128.536C359.112 128.536 358.48 128.704 357.888 129.04C357.296 129.376 356.816 129.88 356.448 130.552C356.08 131.224 355.896 132.056 355.896 133.048C355.896 134.04 356.08 134.872 356.448 135.544C356.816 136.216 357.296 136.728 357.888 137.08C358.48 137.416 359.112 137.584 359.784 137.584C360.616 137.584 361.344 137.384 361.968 136.984C362.592 136.568 362.984 135.984 363.144 135.232H365.208C364.968 136.432 364.36 137.408 363.384 138.16C362.408 138.912 361.216 139.288 359.808 139.288ZM368.023 139V127.096H369.847L370.015 129.376C370.383 128.592 370.943 127.968 371.695 127.504C372.447 127.04 373.375 126.808 374.479 126.808V128.92H373.927C373.223 128.92 372.575 129.048 371.983 129.304C371.391 129.544 370.919 129.96 370.567 130.552C370.215 131.144 370.039 131.96 370.039 133V139H368.023ZM377.966 124.456C377.566 124.456 377.23 124.328 376.958 124.072C376.702 123.8 376.574 123.464 376.574 123.064C376.574 122.68 376.702 122.36 376.958 122.104C377.23 121.848 377.566 121.72 377.966 121.72C378.35 121.72 378.678 121.848 378.95 122.104C379.222 122.36 379.358 122.68 379.358 123.064C379.358 123.464 379.222 123.8 378.95 124.072C378.678 124.328 378.35 124.456 377.966 124.456ZM376.958 139V127.096H378.974V139H376.958ZM388.844 139.288C387.868 139.288 386.996 139.088 386.228 138.688C385.476 138.288 384.9 137.728 384.5 137.008L384.308 139H382.484V121.72H384.5V129.064C384.884 128.488 385.428 127.968 386.132 127.504C386.852 127.04 387.764 126.808 388.868 126.808C390.052 126.808 391.084 127.08 391.964 127.624C392.844 128.168 393.524 128.912 394.004 129.856C394.5 130.8 394.748 131.872 394.748 133.072C394.748 134.272 394.5 135.344 394.004 136.288C393.524 137.216 392.836 137.952 391.94 138.496C391.06 139.024 390.028 139.288 388.844 139.288ZM388.628 137.536C389.428 137.536 390.132 137.352 390.74 136.984C391.348 136.6 391.828 136.072 392.18 135.4C392.532 134.728 392.708 133.944 392.708 133.048C392.708 132.152 392.532 131.368 392.18 130.696C391.828 130.024 391.348 129.504 390.74 129.136C390.132 128.752 389.428 128.56 388.628 128.56C387.828 128.56 387.124 128.752 386.516 129.136C385.908 129.504 385.428 130.024 385.076 130.696C384.724 131.368 384.548 132.152 384.548 133.048C384.548 133.944 384.724 134.728 385.076 135.4C385.428 136.072 385.908 136.6 386.516 136.984C387.124 137.352 387.828 137.536 388.628 137.536ZM402.906 139.288C401.77 139.288 400.762 139.032 399.882 138.52C399.002 137.992 398.306 137.264 397.794 136.336C397.298 135.408 397.05 134.312 397.05 133.048C397.05 131.8 397.298 130.712 397.794 129.784C398.29 128.84 398.978 128.112 399.858 127.6C400.754 127.072 401.786 126.808 402.954 126.808C404.106 126.808 405.098 127.072 405.93 127.6C406.778 128.112 407.426 128.792 407.874 129.64C408.322 130.488 408.546 131.4 408.546 132.376C408.546 132.552 408.538 132.728 408.522 132.904C408.522 133.08 408.522 133.28 408.522 133.504H399.042C399.09 134.416 399.298 135.176 399.666 135.784C400.05 136.376 400.522 136.824 401.082 137.128C401.658 137.432 402.266 137.584 402.906 137.584C403.738 137.584 404.434 137.392 404.994 137.008C405.554 136.624 405.962 136.104 406.218 135.448H408.21C407.89 136.552 407.274 137.472 406.362 138.208C405.466 138.928 404.314 139.288 402.906 139.288ZM402.906 128.512C401.946 128.512 401.09 128.808 400.338 129.4C399.602 129.976 399.178 130.824 399.066 131.944H406.554C406.506 130.872 406.138 130.032 405.45 129.424C404.762 128.816 403.914 128.512 402.906 128.512Z" fill="#494949"/>
<path d="M619.776 67V50.2H625.296C626.608 50.2 627.688 50.416 628.536 50.848C629.384 51.28 630.008 51.864 630.408 52.6C630.824 53.336 631.032 54.168 631.032 55.096C631.032 56.008 630.832 56.832 630.432 57.568C630.032 58.304 629.408 58.896 628.56 59.344C627.712 59.776 626.624 59.992 625.296 59.992H621.792V67H619.776ZM621.792 58.288H625.248C626.592 58.288 627.544 58.008 628.104 57.448C628.68 56.872 628.968 56.088 628.968 55.096C628.968 54.088 628.68 53.304 628.104 52.744C627.544 52.168 626.592 51.88 625.248 51.88H621.792V58.288ZM633.554 67V55.096H635.378L635.546 57.376C635.914 56.592 636.474 55.968 637.226 55.504C637.978 55.04 638.906 54.808 640.01 54.808V56.92H639.458C638.754 56.92 638.106 57.048 637.514 57.304C636.922 57.544 636.45 57.96 636.098 58.552C635.746 59.144 635.57 59.96 635.57 61V67H633.554ZM643.497 52.456C643.097 52.456 642.761 52.328 642.489 52.072C642.233 51.8 642.105 51.464 642.105 51.064C642.105 50.68 642.233 50.36 642.489 50.104C642.761 49.848 643.097 49.72 643.497 49.72C643.881 49.72 644.209 49.848 644.481 50.104C644.753 50.36 644.889 50.68 644.889 51.064C644.889 51.464 644.753 51.8 644.481 52.072C644.209 52.328 643.881 52.456 643.497 52.456ZM642.489 67V55.096H644.505V67H642.489ZM651.447 67L646.935 55.096H649.047L652.623 65.056L656.223 55.096H658.287L653.775 67H651.447ZM663.882 67.288C662.89 67.288 662.066 67.12 661.41 66.784C660.754 66.448 660.266 66 659.946 65.44C659.626 64.88 659.466 64.272 659.466 63.616C659.466 62.4 659.93 61.464 660.858 60.808C661.786 60.152 663.05 59.824 664.65 59.824H667.866V59.68C667.866 58.64 667.594 57.856 667.05 57.328C666.506 56.784 665.778 56.512 664.866 56.512C664.082 56.512 663.402 56.712 662.826 57.112C662.266 57.496 661.914 58.064 661.77 58.816H659.706C659.786 57.952 660.074 57.224 660.57 56.632C661.082 56.04 661.714 55.592 662.466 55.288C663.218 54.968 664.018 54.808 664.866 54.808C666.53 54.808 667.778 55.256 668.61 56.152C669.458 57.032 669.882 58.208 669.882 59.68V67H668.082L667.962 64.864C667.626 65.536 667.13 66.112 666.474 66.592C665.834 67.056 664.97 67.288 663.882 67.288ZM664.194 65.584C664.962 65.584 665.618 65.384 666.162 64.984C666.722 64.584 667.146 64.064 667.434 63.424C667.722 62.784 667.866 62.112 667.866 61.408V61.384H664.818C663.634 61.384 662.794 61.592 662.298 62.008C661.818 62.408 661.578 62.912 661.578 63.52C661.578 64.144 661.802 64.648 662.25 65.032C662.714 65.4 663.362 65.584 664.194 65.584ZM678.378 67.288C677.242 67.288 676.218 67.032 675.306 66.52C674.41 65.992 673.698 65.264 673.17 64.336C672.658 63.392 672.402 62.296 672.402 61.048C672.402 59.8 672.658 58.712 673.17 57.784C673.698 56.84 674.41 56.112 675.306 55.6C676.218 55.072 677.242 54.808 678.378 54.808C679.786 54.808 680.97 55.176 681.93 55.912C682.906 56.648 683.522 57.632 683.778 58.864H681.714C681.554 58.128 681.162 57.56 680.538 57.16C679.914 56.744 679.186 56.536 678.354 56.536C677.682 56.536 677.05 56.704 676.458 57.04C675.866 57.376 675.386 57.88 675.018 58.552C674.65 59.224 674.466 60.056 674.466 61.048C674.466 62.04 674.65 62.872 675.018 63.544C675.386 64.216 675.866 64.728 676.458 65.08C677.05 65.416 677.682 65.584 678.354 65.584C679.186 65.584 679.914 65.384 680.538 64.984C681.162 64.568 681.554 63.984 681.714 63.232H683.778C683.538 64.432 682.93 65.408 681.954 66.16C680.978 66.912 679.786 67.288 678.378 67.288ZM687.89 72.28L690.842 65.848H690.146L685.418 55.096H687.602L691.538 64.36L695.714 55.096H697.802L690.002 72.28H687.89ZM706.401 67V50.2H711.921C713.233 50.2 714.313 50.416 715.161 50.848C716.009 51.28 716.633 51.864 717.033 52.6C717.449 53.336 717.657 54.168 717.657 55.096C717.657 56.008 717.457 56.832 717.057 57.568C716.657 58.304 716.033 58.896 715.185 59.344C714.337 59.776 713.249 59.992 711.921 59.992H708.417V67H706.401ZM708.417 58.288H711.873C713.217 58.288 714.169 58.008 714.729 57.448C715.305 56.872 715.593 56.088 715.593 55.096C715.593 54.088 715.305 53.304 714.729 52.744C714.169 52.168 713.217 51.88 711.873 51.88H708.417V58.288ZM724.9 67.288C723.78 67.288 722.772 67.032 721.876 66.52C720.98 66.008 720.268 65.288 719.74 64.36C719.228 63.416 718.972 62.312 718.972 61.048C718.972 59.784 719.236 58.688 719.764 57.76C720.292 56.816 721.004 56.088 721.9 55.576C722.812 55.064 723.828 54.808 724.948 54.808C726.068 54.808 727.076 55.064 727.972 55.576C728.868 56.088 729.572 56.816 730.084 57.76C730.612 58.688 730.876 59.784 730.876 61.048C730.876 62.312 730.612 63.416 730.084 64.36C729.556 65.288 728.836 66.008 727.924 66.52C727.028 67.032 726.02 67.288 724.9 67.288ZM724.9 65.56C725.588 65.56 726.228 65.392 726.82 65.056C727.412 64.72 727.892 64.216 728.26 63.544C728.628 62.872 728.812 62.04 728.812 61.048C728.812 60.056 728.628 59.224 728.26 58.552C727.908 57.88 727.436 57.376 726.844 57.04C726.252 56.704 725.62 56.536 724.948 56.536C724.26 56.536 723.62 56.704 723.028 57.04C722.436 57.376 721.956 57.88 721.588 58.552C721.22 59.224 721.036 60.056 721.036 61.048C721.036 62.04 721.22 62.872 721.588 63.544C721.956 64.216 722.428 64.72 723.004 65.056C723.596 65.392 724.228 65.56 724.9 65.56ZM733.679 67V49.72H735.695V67H733.679ZM740.224 52.456C739.824 52.456 739.488 52.328 739.216 52.072C738.96 51.8 738.832 51.464 738.832 51.064C738.832 50.68 738.96 50.36 739.216 50.104C739.488 49.848 739.824 49.72 740.224 49.72C740.608 49.72 740.936 49.848 741.208 50.104C741.48 50.36 741.616 50.68 741.616 51.064C741.616 51.464 741.48 51.8 741.208 52.072C740.936 52.328 740.608 52.456 740.224 52.456ZM739.216 67V55.096H741.232V67H739.216ZM750.214 67.288C749.078 67.288 748.054 67.032 747.142 66.52C746.246 65.992 745.534 65.264 745.006 64.336C744.494 63.392 744.238 62.296 744.238 61.048C744.238 59.8 744.494 58.712 745.006 57.784C745.534 56.84 746.246 56.112 747.142 55.6C748.054 55.072 749.078 54.808 750.214 54.808C751.622 54.808 752.806 55.176 753.766 55.912C754.742 56.648 755.358 57.632 755.614 58.864H753.55C753.39 58.128 752.998 57.56 752.374 57.16C751.75 56.744 751.022 56.536 750.19 56.536C749.518 56.536 748.886 56.704 748.294 57.04C747.702 57.376 747.222 57.88 746.854 58.552C746.486 59.224 746.302 60.056 746.302 61.048C746.302 62.04 746.486 62.872 746.854 63.544C747.222 64.216 747.702 64.728 748.294 65.08C748.886 65.416 749.518 65.584 750.19 65.584C751.022 65.584 751.75 65.384 752.374 64.984C752.998 64.568 753.39 63.984 753.55 63.232H755.614C755.374 64.432 754.766 65.408 753.79 66.16C752.814 66.912 751.622 67.288 750.214 67.288ZM759.725 72.28L762.677 65.848H761.981L757.253 55.096H759.437L763.373 64.36L767.549 55.096H769.637L761.837 72.28H759.725ZM623.712 103V87.856H618.696V86.2H630.744V87.856H625.728V103H623.712ZM636.281 103.288C635.145 103.288 634.137 103.032 633.257 102.52C632.377 101.992 631.681 101.264 631.169 100.336C630.673 99.408 630.425 98.312 630.425 97.048C630.425 95.8 630.673 94.712 631.169 93.784C631.665 92.84 632.353 92.112 633.233 91.6C634.129 91.072 635.161 90.808 636.329 90.808C637.481 90.808 638.473 91.072 639.305 91.6C640.153 92.112 640.801 92.792 641.249 93.64C641.697 94.488 641.921 95.4 641.921 96.376C641.921 96.552 641.913 96.728 641.897 96.904C641.897 97.08 641.897 97.28 641.897 97.504H632.417C632.465 98.416 632.673 99.176 633.041 99.784C633.425 100.376 633.897 100.824 634.457 101.128C635.033 101.432 635.641 101.584 636.281 101.584C637.113 101.584 637.809 101.392 638.369 101.008C638.929 100.624 639.337 100.104 639.593 99.448H641.585C641.265 100.552 640.649 101.472 639.737 102.208C638.841 102.928 637.689 103.288 636.281 103.288ZM636.281 92.512C635.321 92.512 634.465 92.808 633.713 93.4C632.977 93.976 632.553 94.824 632.441 95.944H639.929C639.881 94.872 639.513 94.032 638.825 93.424C638.137 92.816 637.289 92.512 636.281 92.512ZM644.594 103V91.096H646.418L646.586 93.376C646.954 92.592 647.514 91.968 648.266 91.504C649.018 91.04 649.946 90.808 651.05 90.808V92.92H650.498C649.794 92.92 649.146 93.048 648.554 93.304C647.962 93.544 647.49 93.96 647.138 94.552C646.786 95.144 646.61 95.96 646.61 97V103H644.594ZM653.312 103V91.096H655.136L655.28 92.824C655.664 92.184 656.176 91.688 656.816 91.336C657.456 90.984 658.176 90.808 658.976 90.808C659.92 90.808 660.728 91 661.4 91.384C662.088 91.768 662.616 92.352 662.984 93.136C663.4 92.416 663.968 91.848 664.688 91.432C665.424 91.016 666.216 90.808 667.064 90.808C668.488 90.808 669.624 91.24 670.472 92.104C671.32 92.952 671.744 94.264 671.744 96.04V103H669.752V96.256C669.752 95.024 669.504 94.096 669.008 93.472C668.512 92.848 667.8 92.536 666.872 92.536C665.912 92.536 665.112 92.912 664.472 93.664C663.848 94.4 663.536 95.456 663.536 96.832V103H661.52V96.256C661.52 95.024 661.272 94.096 660.776 93.472C660.28 92.848 659.568 92.536 658.64 92.536C657.696 92.536 656.904 92.912 656.264 93.664C655.64 94.4 655.328 95.456 655.328 96.832V103H653.312ZM679.341 103.288C677.917 103.288 676.733 102.928 675.789 102.208C674.845 101.488 674.293 100.512 674.133 99.28H676.197C676.325 99.904 676.653 100.448 677.181 100.912C677.725 101.36 678.453 101.584 679.365 101.584C680.213 101.584 680.837 101.408 681.237 101.056C681.637 100.688 681.837 100.256 681.837 99.76C681.837 99.04 681.573 98.56 681.045 98.32C680.533 98.08 679.805 97.864 678.861 97.672C678.221 97.544 677.581 97.36 676.941 97.12C676.301 96.88 675.765 96.544 675.333 96.112C674.901 95.664 674.685 95.08 674.685 94.36C674.685 93.32 675.069 92.472 675.837 91.816C676.621 91.144 677.677 90.808 679.005 90.808C680.269 90.808 681.301 91.128 682.101 91.768C682.917 92.392 683.389 93.288 683.517 94.456H681.525C681.445 93.848 681.181 93.376 680.733 93.04C680.301 92.688 679.717 92.512 678.981 92.512C678.261 92.512 677.701 92.664 677.301 92.968C676.917 93.272 676.725 93.672 676.725 94.168C676.725 94.648 676.973 95.024 677.469 95.296C677.981 95.568 678.669 95.8 679.533 95.992C680.269 96.152 680.965 96.352 681.621 96.592C682.293 96.816 682.837 97.16 683.253 97.624C683.685 98.072 683.901 98.728 683.901 99.592C683.917 100.664 683.509 101.552 682.677 102.256C681.861 102.944 680.749 103.288 679.341 103.288ZM698.557 103.288C697.437 103.288 696.429 103.032 695.533 102.52C694.637 102.008 693.925 101.288 693.397 100.36C692.885 99.416 692.629 98.312 692.629 97.048C692.629 95.784 692.893 94.688 693.421 93.76C693.949 92.816 694.661 92.088 695.557 91.576C696.469 91.064 697.485 90.808 698.605 90.808C699.725 90.808 700.733 91.064 701.629 91.576C702.525 92.088 703.229 92.816 703.741 93.76C704.269 94.688 704.533 95.784 704.533 97.048C704.533 98.312 704.269 99.416 703.741 100.36C703.213 101.288 702.493 102.008 701.581 102.52C700.685 103.032 699.677 103.288 698.557 103.288ZM698.557 101.56C699.245 101.56 699.885 101.392 700.477 101.056C701.069 100.72 701.549 100.216 701.917 99.544C702.285 98.872 702.469 98.04 702.469 97.048C702.469 96.056 702.285 95.224 701.917 94.552C701.565 93.88 701.093 93.376 700.501 93.04C699.909 92.704 699.277 92.536 698.605 92.536C697.917 92.536 697.277 92.704 696.685 93.04C696.093 93.376 695.613 93.88 695.245 94.552C694.877 95.224 694.693 96.056 694.693 97.048C694.693 98.04 694.877 98.872 695.245 99.544C695.613 100.216 696.085 100.72 696.661 101.056C697.253 101.392 697.885 101.56 698.557 101.56ZM707.984 103V92.8H706.184V91.096H707.984V89.032C707.984 87.88 708.272 87.04 708.848 86.512C709.424 85.984 710.264 85.72 711.368 85.72H712.568V87.448H711.68C711.072 87.448 710.64 87.576 710.384 87.832C710.128 88.072 710 88.488 710 89.08V91.096H712.928V92.8H710V103H707.984ZM727.871 103.288C726.719 103.288 725.671 103.064 724.727 102.616C723.799 102.152 723.055 101.44 722.495 100.48C721.935 99.52 721.655 98.296 721.655 96.808V86.2H723.671V96.832C723.671 98.464 724.063 99.648 724.847 100.384C725.631 101.12 726.655 101.488 727.919 101.488C729.183 101.488 730.199 101.12 730.967 100.384C731.735 99.648 732.119 98.464 732.119 96.832V86.2H734.135V96.808C734.135 98.296 733.855 99.52 733.295 100.48C732.735 101.44 731.983 102.152 731.039 102.616C730.095 103.064 729.039 103.288 727.871 103.288ZM741.989 103.288C740.565 103.288 739.381 102.928 738.437 102.208C737.493 101.488 736.941 100.512 736.781 99.28H738.845C738.973 99.904 739.301 100.448 739.829 100.912C740.373 101.36 741.101 101.584 742.013 101.584C742.861 101.584 743.485 101.408 743.885 101.056C744.285 100.688 744.485 100.256 744.485 99.76C744.485 99.04 744.221 98.56 743.693 98.32C743.181 98.08 742.453 97.864 741.509 97.672C740.869 97.544 740.229 97.36 739.589 97.12C738.949 96.88 738.413 96.544 737.981 96.112C737.549 95.664 737.333 95.08 737.333 94.36C737.333 93.32 737.717 92.472 738.485 91.816C739.269 91.144 740.325 90.808 741.653 90.808C742.917 90.808 743.949 91.128 744.749 91.768C745.565 92.392 746.037 93.288 746.165 94.456H744.173C744.093 93.848 743.829 93.376 743.381 93.04C742.949 92.688 742.365 92.512 741.629 92.512C740.909 92.512 740.349 92.664 739.949 92.968C739.565 93.272 739.373 93.672 739.373 94.168C739.373 94.648 739.621 95.024 740.117 95.296C740.629 95.568 741.317 95.8 742.181 95.992C742.917 96.152 743.613 96.352 744.269 96.592C744.941 96.816 745.485 97.16 745.901 97.624C746.333 98.072 746.549 98.728 746.549 99.592C746.565 100.664 746.157 101.552 745.325 102.256C744.509 102.944 743.397 103.288 741.989 103.288ZM754.781 103.288C753.645 103.288 752.637 103.032 751.757 102.52C750.877 101.992 750.181 101.264 749.669 100.336C749.173 99.408 748.925 98.312 748.925 97.048C748.925 95.8 749.173 94.712 749.669 93.784C750.165 92.84 750.853 92.112 751.733 91.6C752.629 91.072 753.661 90.808 754.829 90.808C755.981 90.808 756.973 91.072 757.805 91.6C758.653 92.112 759.301 92.792 759.749 93.64C760.197 94.488 760.421 95.4 760.421 96.376C760.421 96.552 760.413 96.728 760.397 96.904C760.397 97.08 760.397 97.28 760.397 97.504H750.917C750.965 98.416 751.173 99.176 751.541 99.784C751.925 100.376 752.397 100.824 752.957 101.128C753.533 101.432 754.141 101.584 754.781 101.584C755.613 101.584 756.309 101.392 756.869 101.008C757.429 100.624 757.837 100.104 758.093 99.448H760.085C759.765 100.552 759.149 101.472 758.237 102.208C757.341 102.928 756.189 103.288 754.781 103.288ZM754.781 92.512C753.821 92.512 752.965 92.808 752.213 93.4C751.477 93.976 751.053 94.824 750.941 95.944H758.429C758.381 94.872 758.013 94.032 757.325 93.424C756.637 92.816 755.789 92.512 754.781 92.512Z" fill="#494949"/>
<path fill-rule="evenodd" clip-rule="evenodd" d="M1042.86 79.5178H1062.17C1063.5 79.5178 1064.59 80.5193 1064.59 81.7547V99.65C1064.59 100.885 1063.5 101.887 1062.17 101.887H1042.86C1041.52 101.887 1040.44 100.885 1040.44 99.65V81.7547C1040.44 80.5193 1041.52 79.5178 1042.86 79.5178ZM1042.86 81.7547V99.65H1062.17V81.7547H1042.86ZM1051.47 90.7073H1053.72V97.4131H1056.14V90.7073H1058.53V88.4703H1056.14V87.347C1056.14 86.7293 1056.68 86.2285 1057.34 86.2285H1058.55V83.9916H1057.34C1055.34 83.9916 1053.72 85.4939 1053.72 87.347V88.4703H1051.47V90.7073Z" fill="black" fill-opacity="0.9"/>
<path fill-rule="evenodd" clip-rule="evenodd" d="M1017.51 82.3232L1019.22 82.508L1018.45 83.9335C1018.07 84.6286 1017.7 85.3238 1017.32 86.0189C1017.28 86.1661 1017.2 86.2952 1017.09 86.4633C1017.04 86.5335 1016.87 86.7568 1016.87 86.7676C1016.82 86.8281 1016.79 86.8759 1016.77 86.9141V89.5856C1016.77 96.4216 1009.63 100.766 1002.88 100.766C1001.5 100.766 1000.45 100.704 999.254 100.462C997.279 100.062 995.808 99.2682 995.136 97.8806L994.443 96.4519L996.126 96.3085C997.649 96.1788 998.969 95.91 999.983 95.5501C997.2 95.1353 995.64 94.0027 995.64 91.8755V90.757H996.847C997.112 90.757 997.351 90.7371 997.565 90.7005C995.476 89.5432 994.43 87.6868 994.43 85.1118C994.43 85.002 994.43 85.002 994.429 84.8847C994.421 83.5868 994.496 82.8933 994.88 82.0082C995.126 81.4409 995.481 80.9158 995.959 80.4346L996.87 79.5178L997.755 80.4556C1000.67 83.546 1003.56 85.421 1006.5 85.6477C1006.52 82.7961 1008.84 80.638 1011.94 80.638C1013.38 80.638 1014.69 81.1452 1015.72 82.0598C1016.28 82.1669 1016.88 82.2548 1017.51 82.3232ZM1014.84 84.1728L1014.47 84.0952L1014.21 83.8353C1013.6 83.2071 1012.82 82.8749 1011.94 82.8749C1010.17 82.8749 1008.92 84.0407 1008.92 85.671C1008.92 85.9374 1008.91 86.1048 1008.88 86.3249C1008.73 87.2029 1008.2 87.9079 1007.11 87.9079C1003.49 87.9079 1000.22 86.1115 997.04 83.0435C996.876 83.5058 996.838 83.9809 996.843 84.8721C996.844 84.9913 996.844 84.9913 996.844 85.1118C996.844 87.4024 997.846 88.6553 1000.22 89.3537L1001.06 89.6015V90.4196C1001.06 91.4116 1000.04 92.3455 998.56 92.7638C999.24 93.2421 1000.63 93.5002 1002.88 93.5002H1004.09V94.6186C1004.09 96.2211 1002.1 97.4757 999.101 98.1309C1000.08 98.4088 1001.38 98.5286 1002.88 98.5286C1008.45 98.5286 1014.35 94.9399 1014.35 89.5856V86.7894C1014.35 86.4609 1014.45 86.1756 1014.63 85.8791C1014.69 85.7631 1014.77 85.6526 1014.86 85.5265C1014.87 85.5028 1014.94 85.4168 1014.99 85.3481L1015.08 85.1708C1015.24 84.8835 1015.39 84.5962 1015.55 84.309C1015.31 84.2667 1015.07 84.2213 1014.84 84.1728Z" fill="black" fill-opacity="0.9"/>
<path fill-rule="evenodd" clip-rule="evenodd" d="M965.315 79.5178H955.657C951.657 79.5178 948.414 82.5223 948.414 86.2285V95.1762C948.414 98.8824 951.657 101.887 955.657 101.887H965.315C969.315 101.887 972.557 98.8824 972.557 95.1762V86.2285C972.557 82.5223 969.315 79.5178 965.315 79.5178ZM950.829 86.2285C950.829 83.7577 952.99 81.7547 955.657 81.7547H965.315C967.981 81.7547 970.143 83.7577 970.143 86.2285V95.1762C970.143 97.647 967.981 99.65 965.315 99.65H955.657C952.99 99.65 950.829 97.647 950.829 95.1762V86.2285ZM960.486 96.2946C957.152 96.2946 954.45 93.7909 954.45 90.7024C954.45 87.6138 957.152 85.1101 960.486 85.1101C963.819 85.1101 966.522 87.6138 966.522 90.7024C966.522 93.7909 963.819 96.2946 960.486 96.2946ZM960.486 94.0577C962.486 94.0577 964.107 92.5554 964.107 90.7023C964.107 88.8492 962.486 87.347 960.486 87.347C958.486 87.347 956.864 88.8492 956.864 90.7023C956.864 92.5554 958.486 94.0577 960.486 94.0577ZM967.729 85.1101C967.729 85.7278 967.188 86.2285 966.522 86.2285C965.855 86.2285 965.315 85.7278 965.315 85.1101C965.315 84.4924 965.855 83.9916 966.522 83.9916C967.188 83.9916 967.729 84.4924 967.729 85.1101Z" fill="black" fill-opacity="0.9"/>
<path d="M950.776 67V50.2H961V51.856H952.792V57.76H959.776V59.392H952.792V67H950.776ZM968.385 67.288C967.265 67.288 966.257 67.032 965.361 66.52C964.465 66.008 963.753 65.288 963.225 64.36C962.713 63.416 962.457 62.312 962.457 61.048C962.457 59.784 962.721 58.688 963.249 57.76C963.777 56.816 964.489 56.088 965.385 55.576C966.297 55.064 967.313 54.808 968.433 54.808C969.553 54.808 970.561 55.064 971.457 55.576C972.353 56.088 973.057 56.816 973.569 57.76C974.097 58.688 974.361 59.784 974.361 61.048C974.361 62.312 974.097 63.416 973.569 64.36C973.041 65.288 972.321 66.008 971.409 66.52C970.513 67.032 969.505 67.288 968.385 67.288ZM968.385 65.56C969.073 65.56 969.713 65.392 970.305 65.056C970.897 64.72 971.377 64.216 971.745 63.544C972.113 62.872 972.297 62.04 972.297 61.048C972.297 60.056 972.113 59.224 971.745 58.552C971.393 57.88 970.921 57.376 970.329 57.04C969.737 56.704 969.105 56.536 968.433 56.536C967.745 56.536 967.105 56.704 966.513 57.04C965.921 57.376 965.441 57.88 965.073 58.552C964.705 59.224 964.521 60.056 964.521 61.048C964.521 62.04 964.705 62.872 965.073 63.544C965.441 64.216 965.913 64.72 966.489 65.056C967.081 65.392 967.713 65.56 968.385 65.56ZM977.164 67V49.72H979.18V67H977.164ZM982.484 67V49.72H984.5V67H982.484ZM993.228 67.288C992.108 67.288 991.1 67.032 990.204 66.52C989.308 66.008 988.596 65.288 988.068 64.36C987.556 63.416 987.3 62.312 987.3 61.048C987.3 59.784 987.564 58.688 988.092 57.76C988.62 56.816 989.332 56.088 990.228 55.576C991.14 55.064 992.156 54.808 993.276 54.808C994.396 54.808 995.404 55.064 996.3 55.576C997.196 56.088 997.9 56.816 998.412 57.76C998.94 58.688 999.204 59.784 999.204 61.048C999.204 62.312 998.94 63.416 998.412 64.36C997.884 65.288 997.164 66.008 996.252 66.52C995.356 67.032 994.348 67.288 993.228 67.288ZM993.228 65.56C993.916 65.56 994.556 65.392 995.148 65.056C995.74 64.72 996.22 64.216 996.588 63.544C996.956 62.872 997.14 62.04 997.14 61.048C997.14 60.056 996.956 59.224 996.588 58.552C996.236 57.88 995.764 57.376 995.172 57.04C994.58 56.704 993.948 56.536 993.276 56.536C992.588 56.536 991.948 56.704 991.356 57.04C990.764 57.376 990.284 57.88 989.916 58.552C989.548 59.224 989.364 60.056 989.364 61.048C989.364 62.04 989.548 62.872 989.916 63.544C990.284 64.216 990.756 64.72 991.332 65.056C991.924 65.392 992.556 65.56 993.228 65.56ZM1003.96 67L1000.48 55.096H1002.5L1005.02 64.432L1007.8 55.096H1010.08L1012.89 64.432L1015.39 55.096H1017.43L1013.95 67H1011.88L1008.95 57.184L1006.03 67H1003.96ZM1030.35 67.288C1028.94 67.288 1027.82 66.864 1026.99 66.016C1026.16 65.152 1025.74 63.832 1025.74 62.056V55.096H1027.76V61.84C1027.76 64.32 1028.78 65.56 1030.81 65.56C1031.85 65.56 1032.7 65.192 1033.38 64.456C1034.06 63.704 1034.41 62.64 1034.41 61.264V55.096H1036.42V67H1034.6L1034.46 64.864C1034.09 65.616 1033.54 66.208 1032.8 66.64C1032.08 67.072 1031.26 67.288 1030.35 67.288ZM1044.3 67.288C1042.88 67.288 1041.69 66.928 1040.75 66.208C1039.81 65.488 1039.25 64.512 1039.09 63.28H1041.16C1041.29 63.904 1041.61 64.448 1042.14 64.912C1042.69 65.36 1043.41 65.584 1044.33 65.584C1045.17 65.584 1045.8 65.408 1046.2 65.056C1046.6 64.688 1046.8 64.256 1046.8 63.76C1046.8 63.04 1046.53 62.56 1046.01 62.32C1045.49 62.08 1044.77 61.864 1043.82 61.672C1043.18 61.544 1042.54 61.36 1041.9 61.12C1041.26 60.88 1040.73 60.544 1040.29 60.112C1039.86 59.664 1039.65 59.08 1039.65 58.36C1039.65 57.32 1040.03 56.472 1040.8 55.816C1041.58 55.144 1042.64 54.808 1043.97 54.808C1045.23 54.808 1046.26 55.128 1047.06 55.768C1047.88 56.392 1048.35 57.288 1048.48 58.456H1046.49C1046.41 57.848 1046.14 57.376 1045.69 57.04C1045.26 56.688 1044.68 56.512 1043.94 56.512C1043.22 56.512 1042.66 56.664 1042.26 56.968C1041.88 57.272 1041.69 57.672 1041.69 58.168C1041.69 58.648 1041.93 59.024 1042.43 59.296C1042.94 59.568 1043.63 59.8 1044.49 59.992C1045.23 60.152 1045.93 60.352 1046.58 60.592C1047.25 60.816 1047.8 61.16 1048.21 61.624C1048.65 62.072 1048.86 62.728 1048.86 63.592C1048.88 64.664 1048.47 65.552 1047.64 66.256C1046.82 66.944 1045.71 67.288 1044.3 67.288ZM1052.44 67.12C1052.04 67.12 1051.7 66.992 1051.43 66.736C1051.17 66.464 1051.05 66.136 1051.05 65.752C1051.05 65.368 1051.17 65.048 1051.43 64.792C1051.7 64.52 1052.04 64.384 1052.44 64.384C1052.82 64.384 1053.14 64.52 1053.4 64.792C1053.67 65.048 1053.81 65.368 1053.81 65.752C1053.81 66.136 1053.67 66.464 1053.4 66.736C1053.14 66.992 1052.82 67.12 1052.44 67.12ZM1052.44 57.544C1052.04 57.544 1051.7 57.416 1051.43 57.16C1051.17 56.888 1051.05 56.56 1051.05 56.176C1051.05 55.792 1051.17 55.472 1051.43 55.216C1051.7 54.944 1052.04 54.808 1052.44 54.808C1052.82 54.808 1053.14 54.944 1053.4 55.216C1053.67 55.472 1053.81 55.792 1053.81 56.176C1053.81 56.56 1053.67 56.888 1053.4 57.16C1053.14 57.416 1052.82 57.544 1052.44 57.544Z" fill="#494949"/>
</svg>
